<?xml version="1.0" encoding="UTF-8"?>
<svg id="Layer_1" data-name="Layer 1" xmlns="http://www.w3.org/2000/svg" viewBox="0 0 492 414">
  <defs>
    <style>
      .cls-1 {
        fill: #008080;
      }
    </style>
  </defs>
  <path class="cls-1" d="m116,37l.41-.06c3.04-3.28,6.59-8.94,11.59-12.94l19-13,18-8C168.51,1.44,181.98,0,185.83,0h268.17S492,0,492,0l-32,85h0s-23,57-23,57l-17.63,44.07c-1.58,3.95-3.48,7.76-5.7,11.39l.32-.46q-8,17-15,32l-15,25-21,9c-6,0-11,0-18,1H113.02c-2.77,0-5.52.34-8.21,1.01l-21.82,4.99-18.33,8.16c-1.11.56-2.17,1.22-3.16,1.98l-4.53,2.86c-1.3,1.21.32-.3-4.13,3.9l-.43.62c-1.41,2.01-1.17,4.74.57,6.48h0s9,9,9,9l13,7h131.14l-37.67,100.08c-.89,2.36-3.15,3.92-5.67,3.92H45l-18-4-11-8-10-11-6-15v-10l3.28-15.3,6.72-23.7,16-45,25.08-57.69c3.26-7.49,7.67-14.42,13.09-20.54l15.08-17.03c5.12-5.78,11.26-10.57,18.12-14.12l16.63-8.62,10.95-4.48c7.33-3,15.05-4.94,22.93-5.77l26.12-2.75h104l64,1h20.49c2.33,0,4.66-.21,6.95-.63l11.55-3.37,16-5,11-6,9-7h0c2.19-1.64,2.59-4.77.88-6.9l-4.88-6.1-9-5-14-6-18-3-231,1-19,5-18,10-14.15,9.99c-1.89,1.33,1.54-1.84.15.01h0l-12,14c-.53.62-13.6,19.28-14,20l7-22c.03-.09,9.25-28.21,9.28-28.3l5.72-15.7c16.76-42.93,30-60,30-60Z"/>
</svg>